<svg xmlns="http://www.w3.org/2000/svg" xmlns:xlink="http://www.w3.org/1999/xlink" viewBox="0 0 72 82" fill="#fff" fill-rule="evenodd" stroke="#000" stroke-linecap="round" stroke-linejoin="round"><use xlink:href="#A" x=".5" y=".5"/><symbol id="A" overflow="visible"><path d="M70 19.85L35 0 0 20.451v16.04h0c5.339 0 7.514.2 9.096-4.211 3.757-10.627 13.051-19.649 25.509-19.649h0c12.655 0 21.751 9.022 25.509 19.649 1.582 4.612 3.757 4.211 9.492 4.211V19.85zm0 26.265h-3.757c-3.361.2-4.746 1.003-5.734 3.409C56.752 60.15 47.458 67.97 35 67.97h0c-12.655 0-21.751-8.02-25.706-18.446-.989-2.606-2.373-3.208-5.734-3.409H.198h0 0V60.15L35.396 80 70 59.549V46.115zm-39.746 6.417V29.474l17.203 11.429-17.203 11.629zM47.655 27.67c-7.119-7.218-18.39-7.218-25.508 0a18.33 18.33 0 0 0 0 25.865 18.08 18.08 0 0 0 25.508 0c7.118-7.018 7.119-18.647 0-25.865z" fill="#0078d7" stroke="none"/></symbol></svg>