<svg xmlns="http://www.w3.org/2000/svg" xmlns:xlink="http://www.w3.org/1999/xlink" viewBox="0 0 256 81" fill="#fff" fill-rule="evenodd" stroke="#000" stroke-linecap="round" stroke-linejoin="round"><use xlink:href="#A" x=".5" y=".5"/><symbol id="A" overflow="visible"><path d="M245.192 0H9.808C4.291 0 0 4.341 0 9.922v60.155C0 75.659 4.291 80 9.808 80h235.385c5.517 0 9.808-4.341 9.808-9.922V9.922C255 4.341 250.709 0 245.192 0zM21.455 70.078c-4.904 0-9.195-4.341-9.195-9.302s4.291-9.302 9.195-9.302 9.194 4.341 9.194 9.302c0 5.581-4.291 9.302-9.194 9.302zm214.542-3.101h-51.49c-1.839 0-3.064-1.24-3.064-3.101s1.226-3.1 3.064-3.1h51.49c1.839 0 3.065 1.24 3.065 3.1 0 1.24-1.226 3.101-3.065 3.101zm0-10.542h-51.49c-1.839 0-3.064-1.24-3.064-3.101s1.226-3.101 3.064-3.101h51.49c1.839 0 3.065 1.24 3.065 3.101s-1.226 3.101-3.065 3.101zm0-9.922h-51.49c-1.839 0-3.064-1.24-3.064-3.101s1.226-3.101 3.064-3.101h51.49c1.839 0 3.065 1.24 3.065 3.101s-1.226 3.101-3.065 3.101z" fill="#2a3282" stroke="none"/></symbol></svg>